# xmcd CD database file
#
# Track frame offsets:
#	150
#	18771
#	39553
#	59548
#	75694
#	93948
#	114022
#	136590
#	152847
#	176210
#	198636
#	219766
#	242353
#	265858
#
# Disc length: 3810 seconds
#
# Revision: 5
# Processed by: cddbd v1.5.2PL0 Copyright (c) Steve Scherf et al.
# Submitted via: CDex 1.70beta3
#
DISCID=ab0ee00e
DTITLE=JAM Project - GOING ～JAM Project BEST COLLECTION Ⅷ～
DYEAR=2011
DGENRE=Anime
TTITLE0=MAXON
TTITLE1=TRANSFORMERS EVO.
TTITLE2=流星Lovers
TTITLE3=Vanguard
TTITLE4=爆鎮完了! レスキューファイアー
TTITLE5=弾劾の剣
TTITLE6=冒険王 ～Across the legendary kingdom～
TTITLE7=Go! Stand up!
TTITLE8=ヒカリへのカウントダウン
TTITLE9=Blue rise
TTITLE10=BIG BANG EXPLOSION　～Song for Ragnarok Party～
TTITLE11=PRAISE BE TO DECEPTICON
TTITLE12=LONGING
TTITLE13=GOING
EXTD=YEAR: 2011
EXTT0=
EXTT1=
EXTT2=
EXTT3=
EXTT4=
EXTT5=
EXTT6=
EXTT7=
EXTT8=
EXTT9=
EXTT10=
EXTT11=
EXTT12=
EXTT13=
PLAYORDER=
